<svg width="1200" height="620" viewBox="0 0 1200 620" fill="none" xmlns="http://www.w3.org/2000/svg">
  <rect width="1200" height="620" fill="#0A1528"/>
  <g fill="#163458" stroke="#2D5A8B" stroke-width="2">
    <path d="M108 231L138 194L184 178L227 185L239 220L210 244L170 258L129 250L108 231Z"/>
    <path d="M223 279L248 255L281 264L296 303L287 342L255 366L232 352L224 317L223 279Z"/>
    <path d="M332 189L360 171L419 171L474 187L504 218L489 252L457 268L422 255L380 246L346 228L332 189Z"/>
    <path d="M420 278L462 276L495 299L485 338L452 377L415 391L392 369L395 332L420 278Z"/>
    <path d="M522 165L555 145L612 141L678 151L735 183L777 219L775 247L743 259L705 247L662 229L618 225L568 211L534 193L522 165Z"/>
    <path d="M650 270L683 256L729 264L756 291L750 332L721 363L677 381L638 362L628 321L650 270Z"/>
    <path d="M792 315L826 301L862 306L888 333L877 366L846 384L811 373L791 347L792 315Z"/>
    <path d="M912 186L952 166L1003 173L1047 196L1072 231L1061 267L1023 278L982 262L944 242L920 216L912 186Z"/>
    <path d="M984 305L1017 304L1046 321L1058 349L1045 381L1012 398L978 389L957 360L963 331L984 305Z"/>
  </g>
</svg>
